<svg width="58.741" height="79.883" viewBox="0 0 58.741 79.883" xmlns="http://www.w3.org/2000/svg"><g id="svgGroup" stroke-linecap="round" fill-rule="evenodd" font-size="9pt" stroke="#000" stroke-width="0" fill="#069570" style="stroke:#000;stroke-width:0;fill:#069570"><path d="M 51.319 0.977 L 58.741 0.977 L 56.348 11.475 L 47.803 11.475 Q 48.409 12.453 49.104 14.21 A 36.108 36.108 0 0 1 49.17 14.38 Q 49.903 16.26 49.903 18.896 A 15.884 15.884 0 0 1 47.852 26.831 Q 45.801 30.469 42.359 33.105 A 26.108 26.108 0 0 1 36.072 36.633 A 30.422 30.422 0 0 1 34.424 37.231 Q 29.932 38.721 25.049 38.721 A 29.938 29.938 0 0 1 23.853 38.696 Q 23.242 38.672 22.608 38.623 A 17.444 17.444 0 0 0 21.856 39.088 A 21.163 21.163 0 0 0 21.387 39.404 A 8.668 8.668 0 0 0 20.191 40.405 Q 19.629 40.967 19.263 41.626 Q 18.897 42.285 18.897 43.018 Q 18.897 44.385 20.093 45.264 A 3.988 3.988 0 0 0 21.264 45.841 Q 21.801 46.011 22.453 46.085 A 9.578 9.578 0 0 0 23.535 46.143 L 35.45 46.143 Q 38.965 46.143 42.456 46.875 A 23.143 23.143 0 0 1 46.511 48.105 A 19.466 19.466 0 0 1 48.706 49.17 Q 51.465 50.732 53.199 53.174 Q 54.932 55.615 54.932 59.033 A 13.64 13.64 0 0 1 54.189 63.39 A 18.354 18.354 0 0 1 52.93 66.26 A 18.84 18.84 0 0 1 49.838 70.426 A 25.016 25.016 0 0 1 46.9 72.998 Q 42.871 76.025 36.817 77.954 Q 30.762 79.883 22.705 79.883 A 55.541 55.541 0 0 1 17.444 79.643 A 44.587 44.587 0 0 1 13.672 79.126 Q 9.66 78.394 6.674 77.024 A 21.17 21.17 0 0 1 6.47 76.929 A 16.651 16.651 0 0 1 4.095 75.574 Q 2.684 74.597 1.709 73.413 A 7.146 7.146 0 0 1 0 68.75 A 7.345 7.345 0 0 1 1.099 64.819 A 14.008 14.008 0 0 1 3.387 62.02 A 16.086 16.086 0 0 1 3.907 61.548 A 23.53 23.53 0 0 1 6.958 59.305 A 26.613 26.613 0 0 1 7.74 58.838 A 166.884 166.884 0 0 1 10.857 57.089 A 148.939 148.939 0 0 1 11.866 56.543 Q 8.907 55.534 6.953 54.164 A 11.241 11.241 0 0 1 5.542 53.003 A 8.082 8.082 0 0 1 4.218 51.345 A 5.906 5.906 0 0 1 3.369 48.291 A 5.61 5.61 0 0 1 4.346 45.117 A 11.952 11.952 0 0 1 5.838 43.31 A 14.904 14.904 0 0 1 6.885 42.358 A 24.49 24.49 0 0 1 9.172 40.686 A 29.357 29.357 0 0 1 10.425 39.917 A 186.81 186.81 0 0 1 14.453 37.646 A 25.877 25.877 0 0 1 11.487 36.376 Q 9.734 35.484 8.374 34.399 A 19.708 19.708 0 0 1 5.956 32.129 A 15.916 15.916 0 0 1 4.492 30.225 A 15.594 15.594 0 0 1 2.629 26.295 A 14.496 14.496 0 0 1 2.417 25.537 A 20.078 20.078 0 0 1 1.828 21.634 A 18.231 18.231 0 0 1 1.807 20.752 A 18.061 18.061 0 0 1 3.044 14.042 A 17.249 17.249 0 0 1 3.833 12.329 Q 5.86 8.496 9.375 5.762 Q 12.891 3.027 17.578 1.514 A 31.825 31.825 0 0 1 26.104 0.03 A 36.52 36.52 0 0 1 27.588 0 Q 29.492 0 31.421 0.22 Q 33.35 0.439 35.157 0.83 Q 36.963 1.221 38.575 1.831 A 18.636 18.636 0 0 1 40.279 2.572 A 14.99 14.99 0 0 1 41.455 3.223 A 23.019 23.019 0 0 1 42.237 2.826 A 31.173 31.173 0 0 1 43.116 2.417 A 12.707 12.707 0 0 1 44.22 1.987 A 16.595 16.595 0 0 1 45.215 1.685 A 16.951 16.951 0 0 1 46.431 1.406 Q 47.034 1.289 47.707 1.198 A 27.689 27.689 0 0 1 47.901 1.172 A 22.704 22.704 0 0 1 49.485 1.027 Q 50.297 0.98 51.198 0.977 A 36.762 36.762 0 0 1 51.319 0.977 Z M 16.895 19.092 A 11.927 11.927 0 0 0 17.127 21.487 A 9.821 9.821 0 0 0 17.627 23.169 Q 18.36 25 19.654 26.318 Q 20.948 27.637 22.657 28.369 A 9.197 9.197 0 0 0 26.319 29.102 A 9.252 9.252 0 0 0 29.81 28.442 A 8.556 8.556 0 0 0 32.691 26.538 A 8.759 8.759 0 0 0 34.483 23.914 A 10.174 10.174 0 0 0 34.644 23.535 A 9.712 9.712 0 0 0 35.264 21.071 A 12.321 12.321 0 0 0 35.352 19.58 A 11.474 11.474 0 0 0 35.069 16.992 A 9.823 9.823 0 0 0 34.619 15.552 Q 33.887 13.721 32.593 12.402 A 8.983 8.983 0 0 0 29.59 10.376 Q 27.881 9.668 25.928 9.668 A 9.252 9.252 0 0 0 22.437 10.327 Q 20.801 10.986 19.556 12.207 A 8.566 8.566 0 0 0 17.746 14.827 A 9.938 9.938 0 0 0 17.603 15.161 A 9.427 9.427 0 0 0 16.994 17.509 A 12.162 12.162 0 0 0 16.895 19.092 Z M 31.397 57.568 L 20.117 57.568 A 53.973 53.973 0 0 0 18.457 58.789 A 10.978 10.978 0 0 0 17.051 60.065 A 10.135 10.135 0 0 0 16.968 60.156 Q 16.309 60.889 15.894 61.743 A 4.136 4.136 0 0 0 15.479 63.574 Q 15.479 65.931 17.993 67.544 A 9.45 9.45 0 0 0 18.286 67.725 A 9.925 9.925 0 0 0 20.613 68.695 Q 22.868 69.341 26.075 69.382 A 34.354 34.354 0 0 0 26.514 69.385 A 28.977 28.977 0 0 0 29.184 69.268 Q 30.501 69.146 31.654 68.896 A 16.842 16.842 0 0 0 32.178 68.774 Q 34.619 68.164 36.255 67.163 A 9.488 9.488 0 0 0 37.492 66.271 Q 38.147 65.707 38.597 65.075 A 5.694 5.694 0 0 0 38.721 64.893 A 5.348 5.348 0 0 0 39.324 63.671 A 4.265 4.265 0 0 0 39.551 62.305 A 3.668 3.668 0 0 0 38.187 59.392 A 5.599 5.599 0 0 0 37.403 58.838 Q 35.849 57.92 33.403 57.666 A 19.448 19.448 0 0 0 31.397 57.568 Z" vector-effect="non-scaling-stroke"/></g></svg>