<svg width="46.729" height="65.821" viewBox="0 0 46.729 65.821" xmlns="http://www.w3.org/2000/svg"><g id="svgGroup" stroke-linecap="round" fill-rule="evenodd" font-size="9pt" stroke="#000" stroke-width="0" fill="#09090b" style="stroke:#000;stroke-width:0;fill:#09090b"><path d="M 10.352 46.484 L 10.352 24.609 L 0 24.609 L 1.172 16.602 A 106.802 106.802 0 0 0 3.046 15.853 Q 3.969 15.474 4.78 15.117 A 56.981 56.981 0 0 0 5.713 14.697 A 30.455 30.455 0 0 0 7.612 13.743 A 23.139 23.139 0 0 0 9.082 12.866 A 16.539 16.539 0 0 0 11.011 11.409 A 14.392 14.392 0 0 0 11.67 10.791 A 18.626 18.626 0 0 0 12.986 9.32 A 23.553 23.553 0 0 0 13.867 8.154 A 38.964 38.964 0 0 0 14.96 6.525 A 53.252 53.252 0 0 0 16.089 4.663 A 327.275 327.275 0 0 0 17.001 3.08 Q 17.804 1.678 18.75 0 L 28.516 0 L 28.516 13.086 L 46.68 13.086 L 44.141 24.609 L 29.883 24.609 L 29.883 44.434 Q 29.883 47.215 30.683 49.046 A 5.669 5.669 0 0 0 32.349 51.27 A 7.965 7.965 0 0 0 34.829 52.565 Q 36.824 53.223 39.6 53.223 A 23.852 23.852 0 0 0 42.457 53.045 A 26.963 26.963 0 0 0 43.14 52.954 A 14.937 14.937 0 0 0 46.729 51.953 L 46.729 59.863 Q 42.676 62.939 37.695 64.38 A 35.654 35.654 0 0 1 28.748 65.808 A 33.208 33.208 0 0 1 27.832 65.82 Q 23.879 65.82 20.934 64.924 A 15.228 15.228 0 0 1 19.604 64.453 A 14.407 14.407 0 0 1 16.251 62.552 A 12.3 12.3 0 0 1 14.209 60.571 A 14.669 14.669 0 0 1 11.854 56.414 A 18.207 18.207 0 0 1 11.255 54.492 A 28.7 28.7 0 0 1 10.537 50.331 A 38.234 38.234 0 0 1 10.352 46.484 Z" vector-effect="non-scaling-stroke"/></g></svg>